
<svg width="48" height="46" viewBox="0 0 48 46" fill="none" xmlns="http://www.w3.org/2000/svg">
    <path fill-rule="evenodd" clip-rule="evenodd" d="M17.9454 15.4667L15.0233 12.775C15.3601 12.175 15.5706 11.4917 15.5706 10.7583C15.5706 8.42499 13.6338 6.53333 11.2422 6.53333C8.85056 6.53333 6.90527 8.42499 6.90527 10.7583C6.90527 13.0833 8.85056 14.975 11.2422 14.975C12.0843 14.975 12.8674 14.7333 13.5327 14.325L16.4464 17.0167C16.8927 16.45 17.3812 15.925 17.9454 15.4667Z" fill="#1784A7"/>
    <mask id="mask0_1322_43" style="mask-type:luminance" maskUnits="userSpaceOnUse" x="28" y="0" width="12" height="16">
        <path fill-rule="evenodd" clip-rule="evenodd" d="M28.4211 0.5H39.6979V15.1249H28.4211V0.5Z" fill="white"/>
    </mask>
    <g mask="url(#mask0_1322_43)">
        <path fill-rule="evenodd" clip-rule="evenodd" d="M30.2915 15.1248L34.1652 8.76648C34.5517 8.86648 34.9475 8.94981 35.361 8.94981C37.7602 8.94981 39.6979 7.05815 39.6979 4.71648C39.6979 2.39147 37.7602 0.499802 35.361 0.499802C32.9694 0.499802 31.0401 2.38314 31.0401 4.71648C31.0401 5.87481 31.5117 6.93315 32.2864 7.69148L28.4211 14.0415C29.0864 14.3332 29.7096 14.6998 30.2915 15.1248Z" fill="#1784A7"/>
    </g>
    <path fill-rule="evenodd" clip-rule="evenodd" d="M43.6633 20.4585C41.8115 20.4585 40.2275 21.6168 39.6212 23.2252L34.2241 22.7085L34.2325 22.8252C34.2325 23.5085 34.1567 24.1835 34.022 24.8243L39.4022 25.3418C39.7307 27.3585 41.5075 28.9085 43.6633 28.9085C46.0642 28.9085 48.0002 27.0168 48.0002 24.6827C48.0002 22.3502 46.0642 20.4585 43.6633 20.4585Z" fill="#1784A7"/>
    <path fill-rule="evenodd" clip-rule="evenodd" d="M28.8004 37.0667L27.5877 31.9341C26.914 32.1583 26.2067 32.325 25.4656 32.4083L26.6698 37.55C25.2879 38.25 24.3372 39.6508 24.3372 41.275C24.3372 43.6092 26.2648 45.5 28.6656 45.5C31.0572 45.5 32.9932 43.6092 32.9932 41.275C32.9932 38.9917 31.1246 37.1333 28.8004 37.0667Z" fill="#1784A7"/>
    <path fill-rule="evenodd" clip-rule="evenodd" d="M14.6614 24.8588L7.9498 27.0496C7.18347 25.9004 5.84451 25.1338 4.32871 25.1338C1.93711 25.1338 0.000244141 27.0254 0.000244141 29.358C0.000244141 31.6913 1.93711 33.5838 4.32871 33.5838C6.72031 33.5838 8.66559 31.6913 8.66559 29.358C8.66559 29.258 8.64033 29.1671 8.63191 29.0755L15.3604 26.8754C15.0572 26.2329 14.8214 25.5671 14.6614 24.8588Z" fill="#1784A7"/>
    <path fill-rule="evenodd" clip-rule="evenodd" d="M31.7561 22.8251C31.7561 26.8251 28.4382 30.0667 24.3371 30.0667C20.236 30.0667 16.9097 26.8251 16.9097 22.8251C16.9097 18.825 20.236 15.5834 24.3371 15.5834C28.4382 15.5834 31.7561 18.825 31.7561 22.8251Z" fill="#1784A7"/>
</svg>