<svg width="25" height="27" viewBox="0 0 25 27" fill="none" xmlns="http://www.w3.org/2000/svg">
<path d="M17.7197 14.1477C19.37 12.6847 20.4225 10.4668 20.4225 7.97891C20.4225 3.57067 17.1108 0 13.0304 0C8.94453 0 5.63284 3.57067 5.63284 7.97891C5.63284 10.1913 6.46765 12.1943 7.81768 13.638C7.98574 13.7978 12.6888 18.1454 17.7197 14.1477ZM22.679 19.6663L18.6592 16.0074C17.1494 17.2445 12.8761 19.8509 6.96358 15.9137C5.18651 17.2831 0.433875 21.2119 0.960109 23.8651C0.960109 23.8651 1.05378 26.6313 6.07918 26.7635C6.07918 26.7635 21.0617 27.8711 23.5523 25.2923C23.5523 25.2923 26.2744 23.5372 22.679 19.6663Z" fill="#337AB7"/>
</svg>
